<?xml version="1.0" encoding="UTF-8" standalone="no"?>
<!DOCTYPE svg PUBLIC "-//W3C//DTD SVG 1.1//EN" "http://www.w3.org/Graphics/SVG/1.1/DTD/svg11.dtd">
<svg width="100%" height="100%" viewBox="0 0 1182 1182" version="1.1" xmlns="http://www.w3.org/2000/svg" xmlns:xlink="http://www.w3.org/1999/xlink" xml:space="preserve" xmlns:serif="http://www.serif.com/" style="fill-rule:evenodd;clip-rule:evenodd;stroke-linejoin:round;stroke-miterlimit:2;">
    <g transform="matrix(1,0,0,1,-4251,-1417)">
        <g id="Artboard5" transform="matrix(1,0,0,1,0,-0.322835)">
            <rect x="4251" y="1417.323" width="1181.102" height="1181.102" style="fill:none;"/>
            <g transform="matrix(2.719238,0,0,2.719238,3446.927181,618.271408)">
                <path d="M448.596,479.867C447.068,480.24 430.946,484.177 428.968,481.149C427.088,478.271 397.797,429.963 357.899,365.25C354.782,360.195 352.958,359.928 355.788,354.667C356.685,353 360.873,349.825 364.265,351.898C373.887,357.778 483.281,424.633 484.415,425.61C487.469,428.241 484.023,455.78 471.323,468.32C467.587,472.009 462.235,474.813 461.375,475.263C457.222,477.438 457.157,477.069 448.596,479.867Z" style="fill:rgb(64,89,171);"/>
            </g>
            <g transform="matrix(2.719238,0,0,2.719238,3446.927181,618.271408)">
                <path d="M576.402,480.865C567.705,477.668 565.039,477.361 556.634,470.342C544.99,460.618 540.432,432.106 542.027,428.271C542.803,426.405 619.478,380.201 626.267,376.109C662.869,354.053 665.105,350.118 670.347,354.682C675.973,359.58 670.696,364.559 660.926,380.755C655.994,388.933 609.728,465.637 598.522,482.517C596.533,485.512 578.131,481.265 576.402,480.865Z" style="fill:rgb(64,89,171);"/>
            </g>
            <g transform="matrix(2.719238,0,0,2.719238,3446.927181,618.271408)">
                <path d="M435.451,538.9C458.336,542.006 480.682,547.912 484.097,591.517C484.488,596.51 481.838,595.425 440.756,620.907C434.44,624.825 363.54,668.804 361.441,669.297C359.716,669.702 348.963,667.831 354.946,657.766C389.73,599.255 391.533,600.461 425.984,541.794C428.78,537.032 429.913,538.447 435.451,538.9Z" style="fill:rgb(64,89,171);"/>
            </g>
            <g transform="matrix(2.719238,0,0,2.719238,3446.927181,618.271408)">
                <path d="M571.375,544.175C573.31,543.588 593.085,537.596 596.394,540.622C598.855,542.873 663.281,649.288 669.028,658.78C669.523,659.597 674.55,667.9 666.477,670.438C660.743,672.24 660.858,669.474 551.755,603.089C540.962,596.521 539.911,596.321 540.335,591.486C543.793,552.082 563.679,547.528 571.375,544.175Z" style="fill:rgb(64,89,171);"/>
            </g>
            <g transform="matrix(2.719238,0,0,2.719238,3446.927181,618.271408)">
                <path d="M364.638,530.948C416.711,515.388 417.996,514.127 419.017,516.699C420.232,519.761 420.404,521.46 418.195,523.087C411.095,528.315 345.759,576.422 329.82,588.93C325.53,592.297 326.267,588.306 325.733,586.419C322.754,575.9 301.182,561.598 299.171,552.569C298.445,549.31 301.002,550.473 364.638,530.948Z" style="fill:rgb(48,150,224);"/>
            </g>
            <g transform="matrix(2.719238,0,0,2.719238,3446.927181,618.271408)">
                <path d="M587.394,319.829C590.061,320.314 592.652,320.569 591.595,322.542C588.448,328.41 587.748,327.906 546.173,392.287C545.367,393.535 545.311,393.468 535.951,407.794C531.441,414.698 530.912,419.381 524.475,417.578C521.34,416.7 522.194,415.042 531.468,377.492C534.874,363.704 549.981,296.629 550.875,295.921C553.654,293.719 565.793,304.065 566.916,305.022C576.642,313.312 575.695,314.716 587.394,319.829Z" style="fill:rgb(48,150,224);"/>
            </g>
            <g transform="matrix(2.719238,0,0,2.719238,3446.927181,618.271408)">
                <path d="M588.4,697.137C573.45,702.342 556.611,729.413 551.692,723.38C550.129,721.463 519.209,616.801 516.464,607.51C515.205,603.249 522.136,602.763 523.11,603.906C524.89,605.995 562.399,656.683 570.126,666.791C571.862,669.062 591.29,694.477 591.356,695.518C591.435,696.777 590.801,696.362 588.4,697.137Z" style="fill:rgb(48,150,224);"/>
            </g>
            <g transform="matrix(2.719238,0,0,2.719238,3446.927181,618.271408)">
                <path d="M703.392,543.962C726.082,549.6 728.496,548.515 727.561,551.513C722.793,566.813 706.572,571.599 702.778,589.591C702.087,592.865 700.207,589.813 632.209,545.956C604.872,528.324 604.841,527.804 604.97,526.554C605.694,519.569 608.696,521.699 615.531,523.366C634.537,528.002 700.981,543.363 703.392,543.962Z" style="fill:rgb(48,150,224);"/>
            </g>
            <g transform="matrix(2.719238,0,0,2.719238,3446.927181,618.271408)">
                <path d="M506.168,409.601C507.907,415.94 508.901,416.162 507.522,417.523C503.516,421.479 500.37,417.369 500.003,416.89C490.598,404.603 472.594,380.088 435.957,331.152C433.442,327.794 431.235,326.026 435.411,325.134C448.257,322.39 469.718,290.729 472.717,299.392C474.299,303.962 502.848,399.116 506.168,409.601Z" style="fill:rgb(48,150,224);"/>
            </g>
            <g transform="matrix(2.719238,0,0,2.719238,3446.927181,618.271408)">
                <path d="M716.388,474.137C681.346,484.489 607.569,507.339 606.584,507.036C605.606,506.735 602.606,501.994 605.554,499.564C605.889,499.288 666.548,454.042 669.209,452.104C671.278,450.598 685.093,440.538 694.8,432.911C699.326,429.355 696.322,436.298 704.954,446.094C708.129,449.698 730.611,469.486 723.64,471.817C723.063,472.01 723.103,471.989 716.388,474.137Z" style="fill:rgb(48,150,224);"/>
            </g>
            <g transform="matrix(2.719238,0,0,2.719238,3446.927181,618.271408)">
                <path d="M409.606,499.052C397.028,495.963 300.652,473.758 297.406,472.654C295.778,472.1 296.672,466.397 306.596,455.588C324.494,436.092 320.17,433.328 321.762,431.721C322.901,430.573 323.237,431.294 339.22,441.923C357.63,454.166 357.757,453.804 376.205,465.941C418.641,493.86 419.493,493.687 419.234,495.486C418.13,503.144 414.619,500.221 409.606,499.052Z" style="fill:rgb(48,150,224);"/>
            </g>
            <g transform="matrix(2.719238,0,0,2.719238,3446.927181,618.271408)">
                <path d="M440.336,703.847C436.75,702.364 436.82,702.226 435.395,701.993C433.361,701.66 432.307,702.573 432.348,700.493C432.374,699.186 457.661,661.161 459.914,657.775C488.787,614.359 493.572,604.086 496.509,604.073C503.056,604.042 501.613,607.01 500.121,613.413C498.052,622.295 476.663,714.111 474.138,724.41C471.862,733.692 457.229,714.2 440.336,703.847Z" style="fill:rgb(48,150,224);"/>
            </g>
            <g transform="matrix(1.149041,0,0,1.149041,4251.248801,1421.004365)">
                <path d="M1.5,0C0.917,5.778 0.902,1008.311 1.5,1020.999C1.388,1020.512 0.112,1021.486 0,1020.999C-0.487,1018.888 0,1016.666 0,1014.5L0,0C0.112,-0.487 1.388,0.487 1.5,0Z" style="fill:rgb(63,63,63);fill-opacity:0.05;"/>
            </g>
        </g>
    </g>
</svg>
