<svg width="108" height="65" viewBox="0 0 108 65" fill="none" xmlns="http://www.w3.org/2000/svg">
<g filter="url(#filter0_d_13413_1731)">
<path d="M62.2466 12.2585L68.2105 6.30679L61.8935 0L55.5791 6.30679L61.543 12.2611" fill="#5AFFFF"/>
<path d="M40.8423 8.05615H31.3682V10.1584H40.8423V8.05615Z" fill="#5AFFFF"/>
<path d="M103.999 7.99707H82.9473V10.0993H103.999V7.99707Z" fill="#5AFFFF"/>
<path d="M80.8421 44.8394V23.0757H80.8344C80.837 22.9728 80.8421 22.8724 80.8421 22.7695C80.8421 16.9645 76.1283 12.2607 70.3165 12.2607H52.4223C47.1904 12.2607 42.9481 16.4961 42.9481 21.7196V33.2808H71.368V35.383H42.9481V44.8419H80.8421V44.8394ZM70.3165 23.8219H53.4738C52.8914 23.8219 52.4223 23.351 52.4223 22.772C52.4223 22.1931 52.8939 21.7222 53.4738 21.7222H70.3165C70.8989 21.7222 71.368 22.1931 71.368 22.772C71.368 23.351 70.8964 23.8219 70.3165 23.8219ZM93.4735 12.2607C87.6591 12.2607 82.9478 16.967 82.9478 22.7695V46.9416H42.9481V56.4005H93.4735C99.2879 56.4005 103.999 51.6942 103.999 45.8918V22.772C103.999 16.967 99.2853 12.2633 93.4735 12.2633V12.2607ZM94.525 45.8892C94.525 46.4707 94.0534 46.939 93.4735 46.939C92.8936 46.939 92.4219 46.4682 92.4219 45.8892V22.7695C92.4219 22.1879 92.8936 21.7196 93.4735 21.7196C94.0534 21.7196 94.525 22.1905 94.525 22.7695V45.8892ZM31.3683 46.939H29.2111C29.2446 46.5942 29.2627 46.2417 29.2627 45.8892V22.7695C29.2627 16.9645 24.5488 12.2607 18.737 12.2607C12.9252 12.2607 8.21131 16.9645 8.21131 22.7695V46.9416H4V56.4005H40.8425V12.2607H31.3683V46.9416V46.939ZM19.7885 45.8892C19.7885 46.4707 19.3169 46.939 18.737 46.939C18.1571 46.939 17.6855 46.4682 17.6855 45.8892V22.7695C17.6855 22.1879 18.1571 21.7196 18.737 21.7196C19.3169 21.7196 19.7885 22.1905 19.7885 22.7695V45.8892Z" fill="white"/>
</g>
<defs>
<filter id="filter0_d_13413_1731" x="0" y="0" width="107.999" height="64.4004" filterUnits="userSpaceOnUse" color-interpolation-filters="sRGB">
<feFlood flood-opacity="0" result="BackgroundImageFix"/>
<feColorMatrix in="SourceAlpha" type="matrix" values="0 0 0 0 0 0 0 0 0 0 0 0 0 0 0 0 0 0 127 0" result="hardAlpha"/>
<feOffset dy="4"/>
<feGaussianBlur stdDeviation="2"/>
<feComposite in2="hardAlpha" operator="out"/>
<feColorMatrix type="matrix" values="0 0 0 0 0 0 0 0 0 0 0 0 0 0 0 0 0 0 0.25 0"/>
<feBlend mode="normal" in2="BackgroundImageFix" result="effect1_dropShadow_13413_1731"/>
<feBlend mode="normal" in="SourceGraphic" in2="effect1_dropShadow_13413_1731" result="shape"/>
</filter>
</defs>
</svg>
